<?xml version="1.0" standalone="no"?><!DOCTYPE svg PUBLIC "-//W3C//DTD SVG 1.1//EN" "http://www.w3.org/Graphics/SVG/1.1/DTD/svg11.dtd"><svg t="1575302719832" class="icon" viewBox="0 0 1024 1024" version="1.1" xmlns="http://www.w3.org/2000/svg" p-id="3741" xmlns:xlink="http://www.w3.org/1999/xlink" width="64" height="64"><defs><style type="text/css"></style></defs><path d="M512 1024 512 1024c-38.4 0-64-25.6-64-64L448 64c0-32 25.6-64 64-64l0 0c32 0 64 25.6 64 64l0 896C576 998.4 550.4 1024 512 1024z" p-id="3742" fill="#2c2c2c"></path><path d="M0 512 0 512c0-38.4 25.6-64 64-64l896 0c32 0 64 25.6 64 64l0 0c0 32-25.6 64-64 64L64 576C25.6 576 0 550.4 0 512z" p-id="3743" fill="#2c2c2c"></path></svg>