<?xml version="1.0" standalone="no"?><!DOCTYPE svg PUBLIC "-//W3C//DTD SVG 1.1//EN" "http://www.w3.org/Graphics/SVG/1.1/DTD/svg11.dtd"><svg t="1574737828629" class="icon" viewBox="0 0 1024 1024" version="1.1" xmlns="http://www.w3.org/2000/svg" p-id="2542" width="64" height="64" xmlns:xlink="http://www.w3.org/1999/xlink"><defs><style type="text/css"></style></defs><path d="M971.983 1006.282l-911.622 0.020c-21.814-0.020-41.803-20.069-41.853-41.854v-258.427c0-41.979 21.081-63.946 43.213-42.9l123.286 97.036c16.564 14.183 41.456 33.477 55.311 16.656l141.301-171.567c13.857-16.82 38.851-40.567 55.548-26.527l121.589 105.862c16.689 14.021 51.246 38.503 64.826 21.44l302.54-364.607c40.864-46.647 86.438-35.703 86.438 21.449 0 42.591 0 601.584 0 601.584-0.001 21.785-18.773 41.854-40.579 41.834zM617.186 558.487c-11.199 14.347-27.733 23.501-45.82 25.402-18.118 2.147-36.175-3.657-50.081-15.347l-137.152-115.509-137.755 181.827c-11.007 14.49-27.396 23.931-45.462 26.080-2.625 0.305-5.263 0.468-7.9 0.468-15.358 0-30.359-5.315-42.377-15.166l-120.22-98.363c-28.622-23.401-32.842-65.602-9.433-94.225 23.392-28.661 65.583-32.852 94.194-9.433l66.46 54.363 138.338-182.625c11.094-14.655 27.692-24.077 45.923-26.118 18.363-2.002 36.522 3.535 50.562 15.307l137.899 116.156 178.17-223.478-49.651-41.244c-35.231-29.255-27.406-60.953 17.392-70.425l258.22-54.618c44.789-9.472 58.644 12.507 30.789 48.864l-372.095 478.079z" p-id="2543"></path></svg>