<?xml version="1.0" standalone="no"?><!DOCTYPE svg PUBLIC "-//W3C//DTD SVG 1.1//EN" "http://www.w3.org/Graphics/SVG/1.1/DTD/svg11.dtd"><svg t="1574758640226" class="icon" viewBox="0 0 1024 1024" version="1.1" xmlns="http://www.w3.org/2000/svg" p-id="2548" xmlns:xlink="http://www.w3.org/1999/xlink" width="64" height="64"><defs><style type="text/css"></style></defs><path d="M781.8 269c-84.3-49-192.8-20.3-241.7 64l-56.5 97.2c-4.4 7.6-1.8 17.4 5.8 21.9 7.6 4.4 17.4 1.8 21.9-5.8l56.5-97.2c40.1-69 129-92.6 198-52.4 69 40.1 92.6 129 52.4 198 0 0.1-0.1 0.1-0.1 0.2L642.4 808.2c-21.4 38.3-60.4 61.4-104.3 61.9-43.8 0.5-83.3-21.8-105.6-59.5L245.9 494.8c-19.2-33.5-24.2-72.6-14.1-109.9 10.1-37.3 34.2-68.5 67.7-87.8 50.6-29 113.3-25 159.8 10.3 7 5.3 17.1 4 22.4-3.1s4-17.1-3.1-22.4c-56.7-43.1-133.3-48.1-195.1-12.6-84.6 48.5-113.9 156.8-65.4 241.4 0 0.1 0.1 0.1 0.1 0.2l186.6 315.9c27.9 47.2 77 75.2 131.8 75.2h1.8c55.4-0.6 104.7-29.9 131.8-78.2l175.7-313.3c48.9-84.2 20.2-192.6-64.1-241.5z" p-id="2549" fill="#2c2c2c"></path><path d="M452.4 483.9l-22.1 38c-4.4 7.6-1.8 17.4 5.8 21.9 2.5 1.5 5.3 2.2 8 2.2 5.5 0 10.9-2.9 13.8-8l22.1-38c4.4-7.6 1.8-17.4-5.8-21.9s-17.4-1.9-21.8 5.8z" p-id="2550" fill="#2c2c2c"></path></svg>