<?xml version="1.0" standalone="no"?><!DOCTYPE svg PUBLIC "-//W3C//DTD SVG 1.1//EN" "http://www.w3.org/Graphics/SVG/1.1/DTD/svg11.dtd"><svg t="1574759744254" class="icon" viewBox="0 0 1024 1024" version="1.1" xmlns="http://www.w3.org/2000/svg" p-id="7661" xmlns:xlink="http://www.w3.org/1999/xlink" width="64" height="64"><defs><style type="text/css"></style></defs><path d="M982.298495 280.740233L731.035986 32.986977a79.309116 79.309116 0 0 0-134.755312 56.148047v864.679918a70.185058 70.185058 0 0 0 140.370117 0V237.225497l145.984921 145.984921A70.185058 70.185058 0 0 0 982.298495 280.740233zM356.247775 0a70.185058 70.185058 0 0 0-70.185058 70.185058v717.291296L140.077796 641.491432a70.185058 70.185058 0 0 0-99.662783 0 70.185058 70.185058 0 0 0 0 98.960933l251.262509 250.560658a76.501714 76.501714 0 0 0 55.446196 23.161069 74.396162 74.396162 0 0 0 30.179575-5.614805 79.309116 79.309116 0 0 0 49.12954-70.185058V70.185058a70.185058 70.185058 0 0 0-70.185058-70.185058z" fill="#e6e6e6" p-id="7662"></path></svg>